<svg width="16" height="25" viewBox="0 0 16 25" fill="none" xmlns="http://www.w3.org/2000/svg">
<path d="M7.90156 15.0911C7.91326 15.1061 7.92819 15.1181 7.94525 15.1265C7.96231 15.1348 7.98103 15.1391 8 15.1391C8.01897 15.1391 8.03769 15.1348 8.05475 15.1265C8.0718 15.1181 8.08674 15.1061 8.09844 15.0911L9.84844 12.8771C9.9125 12.7958 9.85469 12.6755 9.75 12.6755H8.59219V7.388C8.59219 7.31925 8.53594 7.263 8.46719 7.263H7.52969C7.46094 7.263 7.40469 7.31925 7.40469 7.388V12.6739H6.25C6.14531 12.6739 6.0875 12.7943 6.15156 12.8755L7.90156 15.0911ZM13.7188 14.5443H12.7812C12.7125 14.5443 12.6562 14.6005 12.6562 14.6693V17.0755H3.34375V14.6693C3.34375 14.6005 3.2875 14.5443 3.21875 14.5443H2.28125C2.2125 14.5443 2.15625 14.6005 2.15625 14.6693V17.763C2.15625 18.0396 2.37969 18.263 2.65625 18.263H13.3438C13.6203 18.263 13.8438 18.0396 13.8438 17.763V14.6693C13.8438 14.6005 13.7875 14.5443 13.7188 14.5443Z" fill="white"/>
</svg>
